# xmcd
#
# Track frame offsets:
#	150
#	13369
#	23558
#	36592
#	47774
#	61982
#	72398
#	87569
#	97130
#	107855
#	117668
#	130862
#	143377
#	155721
#	167483
#	177807
#	191735
#
# Disc length: 2683 seconds
#
# Revision: 1
# Processed by: cddbd v1.5.2PL0 Copyright (c) Steve Scherf et al.
# Submitted via: audiograbber 1.83.01
#
DISCID=f70a7911
DTITLE=Patsy Cline - CB5104-1
DYEAR=1900
DGENRE=Karaoke
TTITLE0=Always
TTITLE1=Back In Baby's Arms
TTITLE2=Crazy
TTITLE3=Heartaches
TTITLE4=I Fall To Pieces
TTITLE5=Blue Moon Of Kentucky
TTITLE6=So Wrong
TTITLE7=Bill Bailey
TTITLE8=Have You Ever Been Lonely
TTITLE9=Anytime
TTITLE10=Sweet Dreams
TTITLE11=Crazy Arms
TTITLE12=San Antonio Rose
TTITLE13=Half As Much
TTITLE14=Foolin Around
TTITLE15=She's Got You
TTITLE16=Walkin' After Midnight
EXTD=
EXTT0=
EXTT1=
EXTT2=
EXTT3=
EXTT4=
EXTT5=
EXTT6=
EXTT7=
EXTT8=
EXTT9=
EXTT10=
EXTT11=
EXTT12=
EXTT13=
EXTT14=
EXTT15=
EXTT16=
PLAYORDER=
